<?xml version="1.0" encoding="utf-8"?>
<!-- Generator: Adobe Illustrator 24.0.1, SVG Export Plug-In . SVG Version: 6.00 Build 0)  -->
<svg version="1.1" id="レイヤー_1" xmlns="http://www.w3.org/2000/svg" xmlns:xlink="http://www.w3.org/1999/xlink" x="0px"
	 y="0px" viewBox="0 0 729.6 84.5" style="enable-background:new 0 0 729.6 84.5;" xml:space="preserve">
<g>
	<g>
		<path d="M641.9,16.7c0,1.3-0.6,1.9-1.9,1.9h-16.2c-2.7,0-5.1,1-7,2.9c-2,1.9-3,4.3-3,7.1v54.1c0,1.2-0.6,1.7-1.9,1.7h-13.2
			c-1.3,0-1.9-0.6-1.9-1.7V28.6c0-7.4,2.6-13.8,7.9-19.1c5.3-5.3,11.6-7.9,19.1-7.9H640c1.3,0,1.9,0.6,1.9,1.9V16.7z"/>
		<path d="M704.5,18.6c-1.4,0-2.5,0.5-3.6,1.5c-1,1-1.5,2.2-1.5,3.6v59c0,1.2-0.6,1.7-1.9,1.7h-13.2c-1.3,0-1.9-0.6-1.9-1.7v-59
			c0-1.4-0.5-2.5-1.5-3.6c-1-1-2.2-1.5-3.6-1.5h-3.1c-1.5,0-2.7,0.5-3.7,1.5c-1,1-1.5,2.2-1.5,3.6v59c0,1.2-0.6,1.7-1.7,1.7h-13.3
			c-1.2,0-1.7-0.6-1.7-1.7v-59c0-6.1,2.2-11.3,6.5-15.6c4.3-4.3,9.5-6.5,15.6-6.5h3.1c3.8,0,7.8,1.3,12.2,3.8
			c0.5,0.3,0.9,0.4,1.3,0.4c0.5,0,1-0.1,1.4-0.4c4.4-2.5,8.4-3.8,12.2-3.8h3.1c6.1,0,11.3,2.2,15.6,6.5s6.5,9.5,6.5,15.6v59
			c0,1.2-0.6,1.7-1.7,1.7h-13.3c-1.2,0-1.7-0.6-1.7-1.7v-59c0-1.4-0.5-2.5-1.5-3.6c-1-1-2.2-1.5-3.7-1.5H704.5z"/>
		<path d="M374.1,6.2c-4.1-3-8.7-4.5-13.9-4.5h-6.3c-2.8,0-5.5,0.5-8.1,1.5c-5.3,1.9-9.6,5.2-12.8,9.9c-3.2,4.6-4.9,9.8-4.9,15.5v29
			c0,7.3,2.6,13.7,7.9,18.9c5.3,5.3,11.6,7.9,18.9,7.9h6.3h21.3c1.2,0,1.7-0.6,1.7-1.7V25.7C384.3,17.7,380.9,11.2,374.1,6.2z
			 M367.4,67.5h-6.2h-6.3c-2.7,0-5.1-1-7-3c-2-2-3-4.3-3-7v-29c0-4.7,2.2-7.9,6.7-9.4c0,0,3.4-0.6,6.3-0.6s4.6,0,6.6,1.5
			c2,1.5,3,3.4,3,5.8V67.5z"/>
		<path d="M571.9,9.1c-4.9-4.9-10.8-7.4-17.7-7.4h-6.3c-6.9,0-12.8,2.5-17.7,7.4c-4.9,4.9-7.4,10.8-7.4,17.7v32.8
			c0,6.9,2.5,12.7,7.4,17.6c4.9,4.9,10.8,7.3,17.7,7.3h6.3c6.9,0,12.8-2.4,17.7-7.3c4.9-4.9,7.4-10.8,7.4-17.6V26.8
			C579.2,19.9,576.8,14,571.9,9.1z M562.3,59.5c0,2.2-0.8,4.1-2.4,5.7c-1.6,1.6-3.5,2.4-5.7,2.4h-6.3c-2.2,0-4.1-0.8-5.7-2.4
			c-1.6-1.6-2.4-3.5-2.4-5.7V26.8c0-2.2,0.8-4.1,2.4-5.7c1.6-1.6,3.5-2.4,5.7-2.4h6.3c2.2,0,4.1,0.8,5.7,2.4
			c1.6,1.6,2.4,3.5,2.4,5.7V59.5z"/>
		<path d="M245.7,9.1c-4.9-4.9-10.8-7.4-17.7-7.4h-6.3c-6.9,0-12.8,2.5-17.7,7.4c-4.9,4.9-7.4,10.8-7.4,18.4v55.8
			c0,0.5,0.6,1.2,1.9,1.2h13.2c1.3,0,1.9-0.6,1.9-1.9V60.7h6.2h6.3c7.4,0,13.8-2.6,19.1-7.9c5.3-5.3,7.9-11.6,7.9-18.9v-7.1
			C253.1,19.9,250.6,14,245.7,9.1z M236.1,33.8c0,2.7-1,5.1-2.9,7c-1.9,2-4.3,3-7.1,3h-6.3h-6.2V26.8c0-2.2,0.8-4.1,2.4-5.7
			s3.5-2.4,5.7-2.4h6.3c2.2,0,4.1,0.8,5.7,2.4s2.4,3.5,2.4,5.7V33.8z"/>
		<path d="M316.6,67.5h-30.5l0.3-64.1c0-1.2-0.6-1.7-1.7-1.7h-13.3c-1.2,0-1.7,0.6-1.7,1.7l0.4,79.3c0,1.2,0.6,1.7,1.7,1.7h45
			c1.2,0,1.7-0.6,1.7-1.9V69.4C318.3,68.1,317.7,67.5,316.6,67.5z"/>
		<path d="M508.8,1.7h-44.9c-1.2,0-1.7,0.6-1.7,1.7v2l-0.4,77.3c0,1.2,0.6,1.7,1.7,1.7h13.3c1.2,0,1.7-0.6,1.7-1.7v-29h25.3
			c1.3,0,1.9-0.6,1.9-1.9V38.7c0-1.3-0.6-1.9-1.9-1.9h-25.3l-0.3-18.2h30.5c1.2,0,1.7-0.6,1.7-1.9V3.5
			C510.5,2.3,509.9,1.7,508.8,1.7z"/>
		<path d="M447.1,1.7h-48.5c-1.2,0-1.7,0.6-1.7,1.9v13.2c0,1.3,0.6,1.9,1.7,1.9h15.8v64c0,1.2,0.6,1.7,1.7,1.7h13.3
			c1.2,0,1.7-0.6,1.7-1.7l0.1-64h15.8c1.2,0,1.7-0.6,1.7-1.9V3.6C448.8,2.3,448.2,1.7,447.1,1.7z"/>
	</g>
	<g>
		<path d="M148.8,0H1.4C0.6,0,0,0.6,0,1.4v81.7c0,0.8,0.6,1.4,1.4,1.4h17c0.8,0,1.4-0.6,1.4-1.4V19.7h110.8v63.4
			c0,0.8,0.6,1.4,1.4,1.4h17c0.8,0,1.4-0.6,1.4-1.4V1.4C150.2,0.6,149.6,0,148.8,0z"/>
		<g>
			<circle cx="50.6" cy="51.7" r="10.6"/>
			<circle cx="99.6" cy="51.7" r="10.6"/>
		</g>
	</g>
</g>
</svg>
